<svg width="535" height="379" viewBox="0 0 535 379" fill="none" xmlns="http://www.w3.org/2000/svg">
<circle cx="199" cy="210" r="210" fill="url(#paint0_linear_80_117)"/>
<mask id="mask0_80_117" style="mask-type:alpha" maskUnits="userSpaceOnUse" x="-11" y="0" width="420" height="420">
<circle cx="199" cy="210" r="210" fill="url(#paint1_linear_80_117)"/>
</mask>
<g mask="url(#mask0_80_117)">
<path d="M4.5 86.5C42.5 81 97.5922 109.483 158.5 175C251 274.5 307.5 207 390.5 292.5" stroke="#DEC0F1" stroke-opacity="0.5" stroke-width="10"/>
<path d="M15 97C87 136.148 97.5 155 161.5 217.5C230.112 284.503 334.5 256.5 363 348" stroke="#DEC0F1" stroke-opacity="0.5" stroke-width="10"/>
<path d="M-2 107C72.4828 149.735 70.1034 181.044 136.31 249.271C207.288 322.414 305.5 294.5 331.5 388" stroke="#DEC0F1" stroke-opacity="0.5" stroke-width="10"/>
</g>
<path d="M406.089 174.958C408.004 186.353 409 198.06 409 210C407.523 209.448 406.052 208.901 404.589 208.357C450.721 228.049 477.731 246.954 474.692 260.412C468.609 287.348 344.454 282.261 197.383 249.05C50.3129 215.838 -63.9803 167.079 -57.8977 140.143C-55.282 128.56 -30.8335 122.899 7.88165 122.849C14.8315 107.633 23.5451 93.3913 33.761 80.3857C-49.3322 77.3604 -107.481 92.1559 -115.946 123.977C-130.286 177.883 3.38614 260.234 182.62 307.915C361.853 355.595 518.776 350.548 533.116 296.642C542.277 262.204 491.031 216.158 406.089 174.958Z" fill="url(#paint2_linear_80_117)"/>
<path d="M421.597 281.253C422.777 282.046 422.777 283.781 421.597 284.574L415.242 288.842C414.998 289.006 414.793 289.222 414.642 289.474L410.75 295.966C409.973 297.261 408.096 297.261 407.319 295.966L403.428 289.474C403.277 289.222 403.072 289.006 402.828 288.842L396.472 284.574C395.292 283.781 395.292 282.046 396.472 281.253L402.828 276.985C403.072 276.821 403.277 276.605 403.428 276.353L407.319 269.861C408.096 268.566 409.973 268.566 410.75 269.861L414.642 276.353C414.793 276.605 414.998 276.821 415.242 276.985L421.597 281.253Z" fill="#DEC0F1"/>
<path d="M226.597 293.253C227.777 294.046 227.777 295.781 226.597 296.574L220.242 300.842C219.998 301.006 219.793 301.222 219.642 301.474L215.75 307.966C214.973 309.261 213.096 309.261 212.319 307.966L208.428 301.474C208.277 301.222 208.072 301.006 207.828 300.842L201.472 296.574C200.292 295.781 200.292 294.046 201.472 293.253L207.828 288.985C208.072 288.821 208.277 288.605 208.428 288.353L212.319 281.861C213.096 280.566 214.973 280.566 215.75 281.861L219.642 288.353C219.793 288.605 219.998 288.821 220.242 288.985L226.597 293.253Z" fill="#DEC0F1"/>
<path d="M90.6129 222.854C91.7655 223.649 91.7655 225.351 90.6129 226.146L86.3313 229.099C86.0896 229.266 85.8876 229.484 85.7396 229.738L83.2272 234.041C82.4553 235.363 80.5447 235.363 79.7728 234.041L77.2604 229.738C77.1124 229.484 76.9104 229.266 76.6687 229.099L72.3871 226.146C71.2345 225.351 71.2345 223.649 72.3871 222.854L76.6687 219.901C76.9104 219.734 77.1124 219.516 77.2604 219.262L79.7728 214.959C80.5447 213.637 82.4553 213.637 83.2272 214.959L85.7396 219.262C85.8876 219.516 86.0896 219.734 86.3313 219.901L90.6129 222.854Z" fill="#DEC0F1"/>
<path d="M491.834 234.704C490.866 235.838 489.042 235.551 488.468 234.174L486.281 228.926C486.068 228.415 485.652 228.015 485.133 227.821L479.766 225.822C478.294 225.274 478 223.32 479.245 222.363L483.513 219.079C483.979 218.721 484.263 218.177 484.291 217.59L484.548 212.24C484.621 210.72 486.298 209.835 487.594 210.633L492.63 213.735C493.085 214.015 493.634 214.102 494.154 213.975L499.899 212.57C501.378 212.209 502.702 213.566 502.304 215.036L500.905 220.205C500.751 220.772 500.855 221.378 501.188 221.862L504.241 226.298C505.131 227.592 504.251 229.36 502.682 229.43L496.96 229.683C496.407 229.708 495.888 229.961 495.528 230.382L491.834 234.704Z" fill="#DEC0F1"/>
<path d="M-5.16557 99.7041C-6.1344 100.838 -7.95847 100.551 -8.53211 99.1741L-10.7191 93.9262C-10.9322 93.4148 -11.3479 93.0147 -11.867 92.8213L-17.2339 90.822C-18.7059 90.2736 -19.0002 88.3203 -17.7551 87.3625L-13.4871 84.0795C-13.0215 83.7213 -12.7369 83.1767 -12.7088 82.59L-12.4524 77.2403C-12.3795 75.7197 -10.7021 74.8348 -9.40587 75.6331L-4.36999 78.7347C-3.9146 79.0152 -3.36584 79.1016 -2.8463 78.9746L2.89896 77.5703C4.37778 77.2089 5.70217 78.5664 5.30431 80.0358L3.90459 85.2055C3.75108 85.7724 3.85457 86.3782 4.18758 86.8621L7.24045 91.2977C8.13101 92.5916 7.25077 94.3601 5.68152 94.4296L-0.0400691 94.6833C-0.593528 94.7078 -1.11202 94.9608 -1.47193 95.382L-5.16557 99.7041Z" fill="#DEC0F1"/>
<path d="M19.319 234.652C20.5563 233.743 22.3141 234.509 22.49 236.035L23.0278 240.699C23.0924 241.258 23.3901 241.765 23.8477 242.094L27.6606 244.833C28.9075 245.729 28.7218 247.638 27.3255 248.276L23.0559 250.229C22.5435 250.463 22.1537 250.903 21.9824 251.44L20.5553 255.913C20.0887 257.375 18.2161 257.789 17.1773 256.658L14.0007 253.201C13.6194 252.786 13.0808 252.551 12.5173 252.554L7.82244 252.579C6.28711 252.587 5.31555 250.934 6.06977 249.597L8.37611 245.507C8.65291 245.016 8.70983 244.431 8.53286 243.896L7.05835 239.439C6.57615 237.981 7.84827 236.546 9.35322 236.851L13.9552 237.78C14.5075 237.892 15.0813 237.765 15.5354 237.432L19.319 234.652Z" fill="#DEC0F1"/>
<path d="M273.59 265.043C274.177 263.672 276.004 263.402 276.962 264.545L279.865 268.007C280.221 268.432 280.737 268.69 281.291 268.72L285.798 268.962C287.366 269.046 288.23 270.823 287.327 272.108L284.911 275.55C284.573 276.03 284.464 276.635 284.612 277.204L285.673 281.274C286.057 282.747 284.72 284.092 283.245 283.716L278.681 282.555C278.163 282.424 277.613 282.505 277.155 282.781L273.123 285.213C271.819 285.999 270.15 285.098 270.092 283.577L269.93 279.374C269.907 278.787 269.628 278.24 269.166 277.877L265.857 275.282C264.621 274.313 264.933 272.362 266.41 271.828L270.655 270.292C271.176 270.103 271.595 269.707 271.813 269.198L273.59 265.043Z" fill="#DEC0F1"/>
<path d="M351.035 320.639C352.423 320.094 353.898 321.204 353.758 322.689L352.947 331.288C352.895 331.839 353.074 332.388 353.441 332.802L359.277 339.386C360.319 340.562 359.662 342.425 358.113 342.685L349.859 344.075C349.28 344.172 348.772 344.519 348.472 345.024L344.245 352.127C343.466 353.435 341.57 353.429 340.8 352.115L336.269 344.379C335.999 343.917 335.555 343.583 335.037 343.451L326.348 341.24C324.873 340.865 324.341 339.044 325.383 337.934L331.037 331.905C331.439 331.476 331.632 330.893 331.566 330.309L330.615 321.993C330.436 320.433 332.044 319.285 333.462 319.961L341.405 323.745C341.905 323.983 342.481 324.004 342.997 323.801L351.035 320.639Z" fill="#DEC0F1"/>
<path d="M513.687 303.539C515.179 303.533 516.151 305.103 515.482 306.436L512.933 311.518C512.685 312.013 512.653 312.589 512.845 313.108L514.832 318.48C515.377 319.953 514.089 321.451 512.551 321.132L507.278 320.04C506.703 319.921 506.104 320.061 505.641 320.423L501.42 323.719C500.221 324.656 498.455 323.963 498.215 322.46L497.279 316.62C497.194 316.092 496.901 315.619 496.466 315.309L491.653 311.872C490.414 310.987 490.578 309.097 491.952 308.44L496.782 306.127C497.312 305.874 497.704 305.4 497.853 304.832L499.222 299.624C499.621 298.105 501.536 297.618 502.612 298.762L506.538 302.932C506.918 303.335 507.448 303.563 508.002 303.561L513.687 303.539Z" fill="#DEC0F1"/>
<path d="M94.1464 257.766C94.2554 256.279 95.8951 255.43 97.1727 256.199L104.572 260.655C105.047 260.94 105.619 261.017 106.152 260.865L114.614 258.456C116.124 258.026 117.519 259.425 117.083 260.934L114.761 268.976C114.598 269.54 114.691 270.147 115.016 270.637L119.588 277.523C120.43 278.791 119.602 280.498 118.085 280.623L109.15 281.356C108.617 281.4 108.123 281.656 107.78 282.066L102.024 288.94C101.047 290.107 99.1755 289.798 98.6257 288.378L95.64 280.67C95.4279 280.122 94.9857 279.696 94.4307 279.503L86.5234 276.759C85.0394 276.244 84.7011 274.298 85.9242 273.312L92.7751 267.792C93.2065 267.444 93.4743 266.933 93.5148 266.381L94.1464 257.766Z" fill="#DEC0F1"/>
<defs>
<linearGradient id="paint0_linear_80_117" x1="353" y1="-33.5" x2="55" y2="420" gradientUnits="userSpaceOnUse">
<stop stop-color="#DEC0F1"/>
<stop offset="1" stop-color="#957FEF"/>
</linearGradient>
<linearGradient id="paint1_linear_80_117" x1="353" y1="-33.5" x2="55" y2="420" gradientUnits="userSpaceOnUse">
<stop stop-color="#DEC0F1"/>
<stop offset="1" stop-color="#957FEF"/>
</linearGradient>
<linearGradient id="paint2_linear_80_117" x1="101.5" y1="291" x2="261.5" y2="-5" gradientUnits="userSpaceOnUse">
<stop stop-color="#7161EF"/>
<stop offset="1" stop-color="#DEC0F1"/>
</linearGradient>
</defs>
</svg>
