<svg width="89" height="117" viewBox="0 0 89 117" fill="none" xmlns="http://www.w3.org/2000/svg">
<path d="M65.9478 27.7812L60.0912 12.0568C57.99 6.41505 50.0101 6.41502 47.9088 12.0568L42.0522 27.7812C41.7716 28.5345 41.2404 29.1682 40.5477 29.5759L25.5594 38.3984C21.2891 40.912 21.2891 47.088 25.5594 49.6016L40.5477 58.4241C41.2404 58.8318 41.7716 59.4655 42.0522 60.2188L47.9088 75.9432C50.01 81.585 57.9899 81.585 60.0912 75.9432L65.9478 60.2188C66.2284 59.4655 66.7596 58.8318 67.4523 58.4241L82.4406 49.6016C86.7109 47.088 86.7109 40.912 82.4406 38.3984L67.4523 29.5759C66.7596 29.1682 66.2284 28.5345 65.9478 27.7812Z" fill="#EFD9CE" stroke="#957FEF" stroke-width="3"/>
<path d="M32.4352 75.2428L30.087 68.974C27.9794 63.3474 20.0206 63.3474 17.913 68.974L15.5648 75.2428C15.2826 75.9962 14.7495 76.6294 14.0552 77.0358L6.61525 81.3902C2.32632 83.9004 2.32633 90.0996 6.61525 92.6098L14.0552 96.9642C14.7495 97.3706 15.2826 98.0038 15.5648 98.7572L17.913 105.026C20.0206 110.653 27.9794 110.653 30.087 105.026L32.4352 98.7572C32.7174 98.0038 33.2505 97.3706 33.9448 96.9642L41.3848 92.6098C45.6737 90.0996 45.6737 83.9004 41.3847 81.3902L33.9448 77.0358C33.2505 76.6294 32.7174 75.9962 32.4352 75.2428Z" fill="#EFD9CE" stroke="#957FEF" stroke-width="3"/>
</svg>
