<svg width="1440" height="550" viewBox="0 0 1440 550" fill="none" xmlns="http://www.w3.org/2000/svg">
<path d="M558 357C409.237 240.552 207 51.5 0 0.0175781V55C182.5 129.5 420.5 383 462 435C591.067 596.723 960 575.5 1112.5 638L1526.5 597C1359.5 504.5 843.5 580.482 558 357Z" fill="#EFD9CE" fill-opacity="0.5"/>
<path d="M-88.1055 4.56396C-84.2592 6.20021 -80.4315 7.89234 -76.6226 9.6385L-75 10.3555C-74.9296 10.3984 -74.8591 10.4412 -74.7887 10.4841C114.869 98.4293 258.132 320.006 360 445.121C572 705.5 1360.5 541.5 1251 719.5L704 737.5C563.272 651.72 347.307 575.5 273.5 445.121C240.739 387.248 93.5817 112.948 -74.7887 10.4841C-75.3995 10.2008 -76.0108 9.91896 -76.6226 9.6385L-88.1055 4.56396Z" fill="#EFD9CE" fill-opacity="0.5"/>
</svg>
